<?xml version="1.0" encoding="utf-8"?>
<!-- Generator: Adobe Illustrator 24.0.0, SVG Export Plug-In . SVG Version: 6.00 Build 0)  -->
<svg version="1.1" id="Layer_1" xmlns="http://www.w3.org/2000/svg" xmlns:xlink="http://www.w3.org/1999/xlink" x="0px" y="0px"
	 viewBox="0 0 112 15" style="enable-background:new 0 0 112 15;" xml:space="preserve">
<style type="text/css">
	.st0{fill:#FFFFFF;}
</style>
<g>
	<path class="st0" d="M11.8,3.8v1.5H8.4C7.6,5.3,6.9,5.5,6.6,6S6,7.2,6,8.2s0.2,1.7,0.6,2.2c0.4,0.4,1,0.7,1.9,0.7h3.4v1.5H8.4
		c-1.3,0-2.3-0.4-2.9-1.1s-1-1.8-1-3.3s0.3-2.6,1-3.3c0.7-0.7,1.7-1.1,2.9-1.1L11.8,3.8L11.8,3.8z"/>
	<path class="st0" d="M21.1,3.8c1.3,0,2.3,0.4,2.9,1.1s1,1.8,1,3.3c0,1.5-0.3,2.6-1,3.3s-1.7,1.1-2.9,1.1h-1.2
		c-1.3,0-2.3-0.4-2.9-1.1s-1-1.8-1-3.3c0-1.5,0.3-2.6,1-3.3c0.7-0.7,1.7-1.1,2.9-1.1C19.9,3.8,21.1,3.8,21.1,3.8z M19.9,5.3
		C19,5.3,18.4,5.6,18,6s-0.6,1.2-0.6,2.2c0,1,0.2,1.7,0.6,2.2s1,0.7,1.9,0.7h1.2c0.8,0,1.5-0.2,1.8-0.7s0.6-1.2,0.6-2.2
		c0-1-0.2-1.7-0.6-2.2s-1-0.7-1.9-0.7C21.1,5.3,19.9,5.3,19.9,5.3z"/>
	<path class="st0" d="M31.1,12.6h-1.5v-7c0-0.6,0.2-1,0.5-1.4c0.3-0.3,0.8-0.5,1.5-0.5c0.6,0,1.1,0.2,1.4,0.4
		c0.3,0.3,0.6,0.7,0.8,1.2l2.6,5.6c0,0.1,0.1,0.2,0.2,0.3c0.1,0.1,0.2,0.1,0.3,0.1c0.2,0,0.3,0,0.4-0.1c0.1-0.1,0.1-0.2,0.1-0.4V3.8
		h1.5v7c0,0.6-0.2,1.1-0.5,1.4c-0.3,0.4-0.8,0.5-1.5,0.5c-0.3,0-0.6,0-0.8-0.1s-0.4-0.2-0.6-0.3c-0.2-0.1-0.3-0.3-0.4-0.5
		c-0.1-0.2-0.2-0.4-0.3-0.7l-2.6-5.6c-0.1-0.2-0.3-0.4-0.5-0.4c-0.2,0-0.3,0.1-0.4,0.1c-0.1,0.1-0.1,0.2-0.1,0.4L31.1,12.6
		L31.1,12.6z"/>
	<path class="st0" d="M49.8,3.8v1.5h-2.6v7.2h-1.5V5.3h-2.6V3.8H49.8z"/>
	<path class="st0" d="M53.9,12.6h-1.7l3.1-7.8c0.2-0.4,0.4-0.7,0.7-0.9s0.7-0.2,1.2-0.2c0.5,0,0.8,0.1,1.1,0.2s0.5,0.5,0.7,0.9
		l3,7.8h-1.7l-2.7-7.1c-0.1-0.2-0.2-0.3-0.4-0.3s-0.4,0.1-0.4,0.3L53.9,12.6z"/>
	<path class="st0" d="M72.8,3.8v1.5h-4.5c-0.4,0-0.7,0.1-0.9,0.3c-0.2,0.2-0.3,0.4-0.3,0.8c0,0.1,0,0.3,0.1,0.4s0.1,0.2,0.2,0.3
		c0.1,0.1,0.2,0.2,0.4,0.2c0.2,0.1,0.4,0.1,0.6,0.1h2.1c0.6,0,1.1,0.1,1.5,0.2c0.4,0.2,0.7,0.3,0.9,0.6c0.2,0.2,0.4,0.5,0.5,0.8
		c0.1,0.3,0.1,0.6,0.1,0.9c0,0.4-0.1,0.7-0.2,1c-0.1,0.3-0.3,0.6-0.5,0.8c-0.2,0.2-0.5,0.4-0.9,0.5s-0.8,0.2-1.3,0.2h-4.9V11h4.9
		c0.4,0,0.7-0.1,0.9-0.3c0.2-0.2,0.3-0.5,0.3-0.8c0-0.1,0-0.3-0.1-0.4c0-0.1-0.1-0.2-0.2-0.4S71.4,9,71.2,8.9s-0.4-0.1-0.7-0.1h-2
		c-0.6,0-1.1-0.1-1.4-0.2c-0.4-0.1-0.7-0.3-0.9-0.6s-0.4-0.5-0.4-0.8s-0.1-0.6-0.1-0.9c0-0.4,0.1-0.7,0.2-1s0.3-0.6,0.5-0.8
		s0.5-0.4,0.8-0.5s0.8-0.2,1.2-0.2C68.3,3.8,72.8,3.8,72.8,3.8z"/>
	<path class="st0" d="M82.6,3.8c1.3,0,2.3,0.4,2.9,1.1s1,1.8,1,3.3c0,1.5-0.3,2.6-1,3.3s-1.7,1.1-2.9,1.1h-1.2
		c-1.3,0-2.3-0.4-2.9-1.1s-1-1.8-1-3.3c0-1.5,0.3-2.6,1-3.3c0.7-0.7,1.7-1.1,2.9-1.1C81.4,3.8,82.6,3.8,82.6,3.8z M81.4,5.3
		c-0.8,0-1.5,0.2-1.8,0.7S79,7.2,79,8.2c0,1,0.2,1.7,0.6,2.2s1,0.7,1.9,0.7h1.2c0.8,0,1.4-0.2,1.8-0.7s0.6-1.2,0.6-2.2
		c0-1-0.2-1.7-0.6-2.2c-0.4-0.4-1-0.7-1.8-0.7C82.6,5.3,81.4,5.3,81.4,5.3z"/>
	<path class="st0" d="M98,3.8v1.5h-3.5c-0.3,0-0.6,0-0.9,0.1S93.1,5.6,93,5.8c-0.1,0.1-0.2,0.3-0.3,0.5s-0.1,0.4-0.1,0.6v0.8h5.3
		v1.5h-5.3v3.5h-1.5V6.8c0-0.4,0.1-0.8,0.2-1.2c0.1-0.4,0.3-0.7,0.6-1s0.6-0.5,1-0.6s0.9-0.2,1.5-0.2L98,3.8L98,3.8z"/>
	<path class="st0" d="M108.5,3.8v1.5h-2.6v7.2h-1.6V5.3h-2.6V3.8H108.5z"/>
</g>
</svg>
